# xmcd
#
# Track frame offsets:
#	150
#	14787
#	32952
#
# Disc length: 690 seconds
#
# Revision: 2
# Processed by: cddbd v1.5.1PL2 Copyright (c) Steve Scherf et al.
# Submitted via: audiograbber 1.83.01
#
DISCID=2302b003
DTITLE=Katie Melua - Nine Million Bicycles
DYEAR=2005
DGENRE=Jazz
TTITLE0=Nine Million Bicycles
TTITLE1=Market Day In Guernica
TTITLE2=Stardust
EXTD=
EXTT0=
EXTT1=
EXTT2=
PLAYORDER=
